<svg width="54" height="64" viewBox="0 0 54 64" fill="none" xmlns="http://www.w3.org/2000/svg">
<path d="M34.8539 1.03125C36.5602 5.26962 34.8736 8.71504 35.9047 13.7324L39.5346 13.7969C40.5034 17.8759 33.5348 22.942 34.1245 29.1387C37.2051 30.648 46.6259 25.9947 53.1752 26.8291L53.5922 27.9365C49.9519 30.6731 38.5956 34.92 33.8012 36.8672C33.1993 40.9059 32.8227 45.1268 32.3998 49.2021C34.9348 52.1149 39.1708 55.8721 38.7221 59.7139L37.3618 60.2979C35.7128 59.3098 34.0359 58.3691 32.3334 57.4775C31.4063 59.6132 30.6561 61.1125 29.5414 63.1572C24.1799 62.6847 28.3669 53.6221 23.4975 48.4678C21.8381 51.9206 20.7763 55.431 16.5932 55.6973C13.6496 51.1215 15.578 48.276 17.2748 43.3516C12.4675 45.0785 6.76521 49.2389 2.3891 46.6816C2.02888 44.8087 -0.182839 36.7442 0.0121475 36.0674C2.7664 26.5371 3.31666 20.6768 3.10199 10.8398L4.67621 9.46875C10.7937 9.73922 14.0184 25.2064 19.3491 27.2236C29.1009 18.5761 21.6345 10.1363 32.9135 0L34.8539 1.03125ZM5.88324 23.335C4.9054 26.8656 2.94959 32.2553 3.69769 35.5449L5.04926 36.3359L7.79144 35.3672C10.9377 32.0438 10.4875 33.5159 10.4116 29.5146C8.69786 26.3985 8.4115 25.9251 5.88324 23.335ZM4.67621 9.46875C4.24055 9.44949 3.79048 9.50513 3.32367 9.65039L5.32269 8.90625L4.67621 9.46875Z" fill="#FE02D3"/>
</svg>
